<svg width="100%" height="100%" viewBox="0 0 49 41" fill="none" xmlns="http://www.w3.org/2000/svg">
    <path d="M45.7292 7.01599C36.8131 14.2981 20.9667 24.6144 10.8753 24.6144C6.94415 24.6144 4.39091 22.8748 4.39091 20.3665C4.39091 18.1414 6.1336 16.7254 8.97054 16.7254C11.6859 16.7254 15.9008 18.7482 23.9253 23.8862L46.6208 38.4908L47.9177 36.468L25.2221 21.8634C16.8329 16.4422 12.2533 14.2981 8.97054 14.2981C4.83671 14.2981 1.95925 16.7659 1.95925 20.3665C1.95925 24.3312 5.64727 27.0417 10.8753 27.0417C21.6962 27.0417 38.2721 16.24 47.2692 8.87696L45.7292 7.01599ZM31.0581 0.7453L0.013916 38.5312L1.87819 40.0686L32.9224 2.28263L31.0581 0.7453Z"
          fill="black"/>
</svg>
