<?xml version="1.0" encoding="utf-8"?>
<svg version="1.1" id="Layer_1" xmlns="http://www.w3.org/2000/svg" xmlns:xlink="http://www.w3.org/1999/xlink" x="0px" y="0px"
	 viewBox="0 0 664.1 99.4" style="enable-background:new 0 0 664.1 99.4;" xml:space="preserve">
<g>
	<path d="M66.4,55.3c20-9.8,40.1-24.1,52.8-34.7c0,0-2.4-2.9-4-4.8c-4.6,3.8-29.5,23.7-55,35.5c-3.4-2.2-7-4.4-10.6-6.5L83.3,4.1
		l-4.8-3.9L44.2,41.8c-8.1-4.3-15.8-7.5-21.4-7.5C12.6,34.3,5,40.4,5,50c0,7.3,5.9,15.1,18.9,16.4L0,95.4l4.8,3.9l27.2-33
		c8.5-0.8,18.1-3.7,27.9-8c5.4,3.5,9.8,6.5,12.2,8c20,12.7,35.7,22.7,45.8,29.2c0.2-0.4,2.6-5.2,2.8-5.5C110.1,84.1,92.3,72,73.6,60
		C71.4,58.6,69,57,66.4,55.3z M27.7,60.3C16,60.3,11.2,55,11.2,49.7c0-5.4,4.2-9.2,11.9-9.2c4.1,0,10.4,2.6,17.2,6.2L29,60.3
		C28.5,60.3,28.1,60.3,27.7,60.3z M37.9,59.2l7.8-9.5c2.6,1.5,5.2,3.1,7.7,4.6C48.2,56.5,42.9,58.1,37.9,59.2z"/>
	<path d="M555.6,34.1c-13.1,0.1-34.1,12.7-40.6,16.7l39.4-46.8L549.7,0l-26.5,32.1c-14.4,10.7-31.6,19-46.8,25.6
		c-1.5-2.7-2.9-5-2.9-6.4c0-7.8,14.3-14.8,14.3-14.8l-2.7-5.6c-7.2,3.1-22.8,10.6-33.9,10.7c1.6-3.6,2.6-7.3,2.6-11.1
		c0-7.1-3-8.7-5.4-8.7c-5.7,0-10.2,6.5-10.2,14.1c0,3.7,1.7,6.8,4.3,8.9c0,0,0,0,0,0c-12,15.4-27.6,22.5-31.1,22.5
		c-2.3,0,8.1-17.2,21.4-24.7c-0.7-1.4-2.7-5.6-2.7-5.6c-9.2,4.2-20.1,5.5-26,5.8c0.3-1.1,0.5-2.1,0.5-3.1c0-3.7-2.3-6.4-6.9-6.4
		c-6.8,0-18,6.7-26.4,14.7C357.9,54.9,331.8,68,326.5,68c-5.3,0-4.6-8.1,24.5-22.7c-0.7-1.1-2.6-4.5-2.6-4.5
		c-2.7-0.6-4.5-1.6-5.6-2.6c3.9-2.4,10-7.3,10-12.2c0-4.1-3.1-6.6-6.5-6.6c-6.4,0-13.5,7-13.5,12.7c0,1.5,0.4,2.9,0.7,4
		c-3.9,1.8-11.2,4.7-20.5,6c0.2-0.8,0.3-1.6,0.3-2.4c0-3.8-2.4-6.5-7-6.5c-7.7,0-21.3,8.7-29.9,18.1c-4.7,2.9-22.5,13.8-25.5,13.8
		c-3.4,0,7.9-24.8-6.6-24.8c-6.4,0-15.5,5-21.9,9.4l37.6-45.6l-4.8-3.9l-28.9,35.4C209.5,49.8,183,61,176.9,63.1
		c-6.2,2.2-9,3-11.3,1.8c-2.2-1.1-0.5-8,9-15.9c9.8-8.1,17-10.1,18.1-9c1.2,1.2-3,5.1-3,5.1l4.1,4.7c9-8.3,4.9-16.1-1.4-16.1
		c-8,0-21.5,8.5-28.7,17.7c-5.1,3.7-22.1,15.4-28.8,15.4c-3.8,0-0.9-8.8-0.9-8.8s12.1-10.6,12.1-18.7c0-4.4-3.4-6.4-7-6.4
		c-12.7,0-38.6,21.6-38.6,33.2c0,3.7,2.6,6.3,6.9,6.3c8.1,0,19.3-8.4,19.3-8.4s-0.6,9,8,9c7.1,0,19.2-7.5,24-10.7c0,0.2,0,0.4,0,0.5
		c0,5.2,3.6,8.8,9.4,8.8c9.4,0,36.5-13.9,45.2-19.5L197,71.7c0,0,3.7,3,4.8,3.9c16.2-19.6,35.2-28.9,43-28.9
		c4.7,0-7.3,24.7,6.6,24.7c3.2,0,11.5-4.5,17.7-8.2c-0.3,0.9-0.4,1.9-0.4,2.7c0,3.4,2.5,6.2,6.8,6.2c9.6,0,26.8-12.5,34.2-23.3
		c8-0.7,17.4-2.7,27.3-7.4c1.5,1.5,3.2,2.5,3.2,2.5c-16.6,9.6-22.4,15.9-22.4,22.1c0,3.6,2.5,8.1,9.1,8.1c5.6,0,25.2-9.6,35.1-14.5
		c-1.1,2.2-1.8,4.3-1.8,6.2c0,3.4,2.4,6.1,6.8,6.1c9.4,0,26.1-12,33.6-22.7c8.1-0.3,13.3-1.1,16.1-1.7c-4.8,5.1-11.9,13.8-11.9,20.4
		c0,3.1,2.3,5.6,6.2,5.6c7.8,0,27.1-11.4,36.9-26.1c1,0.2,2,0.3,3.1,0.3c6.4,0,13.3-1.9,18.3-3.7c-1.5,2.5-2.1,5.3-2.1,7.8
		c0,2,1.7,5.2,3.3,8.2c-10.2,4.3-19.2,7.7-25.2,10.5c0.2,1.9,0.5,5.8,0.5,5.8c19.6,4.5,33.9-0.8,33.9-8.7c0-1.4-0.3-2.9-0.9-4.4
		c13.6-5.9,25.6-11.8,32-16.3l-20.3,24.5l4.8,3.9l5.2-6.3c16.4-14.6,41.4-28.5,54.9-28.8C555.6,40,555.6,34.1,555.6,34.1z
		 M128.4,54.7c-5,4.6-16,11.9-20.9,11.9c-0.7,0-1.2-0.3-1.2-0.8c0-2.4,5.7-10.2,12.9-16.2c7.1-5.9,16.2-10.6,19.6-10.6
		c0.9,0,1.1,0.4,1.1,1c0,2.1-3.9,6.7-3.9,6.7l-5.2-1.4C130.8,45.2,128.5,54.1,128.4,54.7z M307.3,40.1c0,0.7-0.4,2-0.9,3
		c-2.9,0.1-6.3-0.2-9.4-0.5c3.4-2,7.1-3.4,9.3-3.4C307,39.3,307.3,39.5,307.3,40.1z M275.5,66.1c-0.5,0-0.9-0.2-0.9-0.7
		c0-3.9,7.1-11.6,14.9-17.6c2.5,0.5,6.8,1.1,12.3,1.2C294.6,56.9,281.9,66.1,275.5,66.1z M338.7,33.8c0-5.9,8.1-10,8.1-8
		C346.8,28.1,341.2,33.1,338.7,33.8z M367.2,66.1c-0.5,0-0.9-0.2-0.9-0.7c0-7,22.8-26.2,31.7-26.2c0.7,0,1,0.3,1,0.9
		C399,46.8,376.6,66.1,367.2,66.1z M447.5,28.2c1.7,0,0.9,6-1.9,11.8C442.5,36.9,445.5,28.2,447.5,28.2z M473.7,66.9
		c0,4.4-10.3,5.4-17.8,5.4c5.5-2.1,12.7-4.6,17.5-6.7C473.6,66.1,473.7,66.6,473.7,66.9z"/>
	<path d="M661.1,54.1c-13.6,7.7-39.1,16.6-47.5,16.6c-8.1,0-8-12.6-17.9-12.6c-4.5,0-11.4,3.2-18.9,5.4c-5.4,1.6-10.6,2.6-14.1,2.1
		c13.4-4.8,28.6-11.5,36.9-17.5c3.3-2.4,5.7-4.7,5.7-8.3c0-3.8-3-6.8-8.3-6.8c-14.4,0-44.8,15-44.8,29.5c0,0.1,0,0.1,0,0.2
		c-4.7,1.6-8.8,2.7-11.6,3.2c0.2-1,0.4-2.2,0.4-3.5c0-3.7-2.2-6.8-7.6-6.8c-6.8,0-18.1,5.1-18.1,5.1l2.4,5.7c0,0,10.6-4.6,15.9-4.6
		c2.4,0,0.3,3.5,0.3,6.6c0,2.4,1.6,4,4,4c2.8,0,9.1-1.5,16.8-4c2.2,2.3,5.9,3.7,10.6,3.7c11,0,25.3-7.7,30.5-7.7
		c4.7,0,6.2,12.6,17.8,12.6c11,0,39.1-10.7,50.4-17.4C664.1,59.5,661.7,55.2,661.1,54.1z M580.5,43.5c9.6-4.2,18.7-5.4,18.7-3.7
		c0,3.6-22.3,14-40.3,20.6C560.7,54.9,570.8,47.8,580.5,43.5z"/>
</g>
</svg>
