<svg width="65" height="28" viewBox="0 0 65 28" fill="none" xmlns="http://www.w3.org/2000/svg">
<path fill-rule="evenodd" clip-rule="evenodd" d="M26.6601 5.99967L23.5922 23.0047H28.5005L31.5688 5.99967H26.6601ZM19.4624 5.99967L14.7826 17.6956L14.229 15.177L14.2294 15.1778L14.1075 14.6134C13.5411 13.5125 12.2293 11.4201 9.75242 9.63443C9.02013 9.10662 8.28195 8.65617 7.56836 8.27139L11.8216 23.0047H16.9357L24.7453 5.99967H19.4624ZM38.619 10.7206C38.619 8.79802 43.3993 9.04506 45.4998 10.089L46.2002 6.43679C46.2002 6.43679 44.0385 5.69531 41.7853 5.69531C39.3493 5.69531 33.5649 6.65612 33.5649 11.3247C33.5649 15.7184 40.3541 15.773 40.3541 18.0797C40.3541 20.3865 34.2648 19.9742 32.2553 18.5191L31.525 22.3365C31.525 22.3365 33.7166 23.2973 37.0661 23.2973C40.4153 23.2973 45.4692 21.7324 45.4692 17.4756C45.4692 13.0545 38.619 12.6427 38.619 10.7206ZM58.6488 5.99967H54.7023C52.88 5.99967 52.4363 7.26695 52.4363 7.26695L45.1162 23.0047H50.2323L51.2558 20.4789H57.4959L58.0715 23.0047H62.5785L58.6488 5.99967ZM52.6703 16.9893L55.2496 10.6257L56.7006 16.9893H52.6703Z" fill="#424242"/>
<path fill-rule="evenodd" clip-rule="evenodd" d="M12.6446 7.60064C12.6446 7.60064 12.4414 6.06592 10.2724 6.06592H2.39211L2.2998 6.35435C2.2998 6.35435 6.08768 7.05078 9.72168 9.65999C13.1945 12.1538 14.3274 15.2624 14.3274 15.2624L12.6446 7.60064Z" fill="#424242"/>
</svg>
