<svg width="49" height="51" viewBox="0 0 49 51" fill="none" xmlns="http://www.w3.org/2000/svg">
<path d="M24.4572 51C20.3747 50.7878 17.2416 49.0712 15.1681 45.5774C12.2059 40.578 9.25632 35.5748 6.31943 30.5678C4.45856 27.4151 2.71921 24.1789 0.691246 21.1361C-0.801248 18.8966 0.205139 16.0584 2.92049 15.3952C7.36109 14.3214 11.5102 12.285 15.0731 9.43078C17.502 7.49947 19.5705 5.15585 21.1836 2.50761C21.4275 2.06499 21.7016 1.63958 22.0039 1.23439C23.4015 -0.448083 25.7143 -0.402607 27.0776 1.32155C27.2289 1.52331 27.3647 1.7361 27.484 1.95816C31.3994 8.72216 37.4111 12.7351 44.7141 15.0618C45.1964 15.2133 45.6901 15.3346 46.1724 15.4824C48.8764 16.3047 49.7499 18.4949 48.3181 20.9277C44.5685 27.2938 40.8126 33.6549 37.0504 40.0109C35.8921 41.9662 34.7718 43.9442 33.5679 45.873C31.4868 49.2569 28.3233 50.8408 24.4572 51Z" fill="black"/>
</svg>
