<svg width="64" height="26" viewBox="0 0 64 26" fill="none" xmlns="http://www.w3.org/2000/svg">
<g clip-path="url(#clip0)">
<path d="M30.2697 12.7019V20.3233H27.9062V1.50175H34.1746C34.9228 1.48576 35.6667 1.62152 36.3634 1.90118C37.06 2.18085 37.6957 2.59888 38.2336 3.13116C38.7769 3.63113 39.2093 4.24429 39.5018 4.92942C39.7942 5.61456 39.9399 6.3558 39.9291 7.10332C39.9447 7.85485 39.8012 8.60093 39.5085 9.29043C39.2159 9.97993 38.7809 10.5965 38.2336 11.098C37.1375 12.1673 35.7845 12.7014 34.1746 12.7004H30.2697V12.7019ZM30.2697 3.81897V10.3892H34.2333C34.6678 10.4024 35.1002 10.3226 35.5029 10.155C35.9056 9.98747 36.2696 9.73577 36.5718 9.41604C36.8724 9.11709 37.1113 8.75953 37.2744 8.36448C37.4376 7.96944 37.5216 7.54494 37.5216 7.11609C37.5216 6.68724 37.4376 6.26274 37.2744 5.86769C37.1113 5.47265 36.8724 5.11509 36.5718 4.81614C36.2734 4.48967 35.9106 4.2318 35.5075 4.05963C35.1043 3.88746 34.67 3.80491 34.2333 3.81747H30.2697V3.81897Z" fill="#434343"/>
<path d="M45.3757 7.02539C47.1226 7.02539 48.5015 7.50295 49.5125 8.45807C50.5235 9.41319 51.0284 10.7227 51.0275 12.3867V20.3235H48.7668V18.5364H48.664C47.6853 20.0081 46.3837 20.744 44.7592 20.744C43.3724 20.744 42.2122 20.3235 41.2785 19.4825C40.8305 19.0965 40.4723 18.6131 40.23 18.0675C39.9877 17.522 39.8675 16.9279 39.8781 16.3288C39.8781 14.9962 40.3704 13.9365 41.3549 13.1496C42.3394 12.3627 43.6538 11.9682 45.2979 11.9662C46.7013 11.9662 47.8571 12.229 48.7653 12.7546V12.202C48.768 11.7935 48.6818 11.3896 48.5129 11.0194C48.3441 10.6493 48.0968 10.3222 47.7891 10.062C47.1641 9.48509 46.3496 9.17034 45.5078 9.18042C44.1876 9.18042 43.1429 9.75009 42.3737 10.8894L40.2921 9.54835C41.4371 7.86638 43.1316 7.02539 45.3757 7.02539ZM42.3179 16.3814C42.3163 16.6891 42.3866 16.9927 42.523 17.267C42.6593 17.5413 42.8578 17.7783 43.1018 17.9582C43.6245 18.3789 44.2733 18.6017 44.9382 18.589C45.9356 18.5873 46.8916 18.1811 47.5968 17.4596C48.3797 16.7057 48.7712 15.8212 48.7712 14.806C48.0342 14.2053 47.0066 13.905 45.6884 13.905C44.7283 13.905 43.9278 14.1417 43.2868 14.6153C42.6394 15.0959 42.3179 15.68 42.3179 16.3814Z" fill="#434343"/>
<path d="M64.0045 7.4458L56.1126 26.0001H53.6728L56.6015 19.5079L51.4121 7.4458H53.9811L57.7318 16.6967H57.7832L61.4311 7.4458H64.0045Z" fill="#434343"/>
<path d="M20.7195 11.0589C20.7204 10.3221 20.6595 9.58654 20.5375 8.86035H10.5698V13.0247H16.2788C16.162 13.6899 15.9148 14.3239 15.552 14.8886C15.1892 15.4533 14.7183 15.937 14.1679 16.3106V19.0138H17.5751C19.5701 17.1321 20.7195 14.3493 20.7195 11.0589Z" fill="#3E3E3E"/>
<path d="M10.5696 21.6253C13.4219 21.6253 15.8235 20.6672 17.5748 19.0153L14.1676 16.3121C13.2193 16.9699 11.9979 17.3453 10.5696 17.3453C7.81267 17.3453 5.4727 15.4441 4.63594 12.8821H1.12598V15.6678C2.00569 17.4587 3.35465 18.9641 5.02223 20.0161C6.68981 21.0681 8.6104 21.6252 10.5696 21.6253Z" fill="#393939"/>
<path d="M4.63592 12.8819C4.19356 11.5394 4.19356 10.0856 4.63592 8.74304V5.95728H1.12596C0.385906 7.46377 0.000488281 9.12644 0.000488281 10.8125C0.000488281 12.4985 0.385906 14.1612 1.12596 15.6677L4.63592 12.8819Z" fill="#404040"/>
<path d="M10.5696 4.28024C12.0769 4.25505 13.5333 4.83766 14.6242 5.90214L17.6409 2.81602C15.728 0.977982 13.1938 -0.0311342 10.5696 0.000221132C8.6104 0.000312477 6.68982 0.557457 5.02223 1.60945C3.35465 2.66145 2.00569 4.16689 1.12598 5.95771L4.63594 8.74348C5.4727 6.18147 7.81267 4.28024 10.5696 4.28024Z" fill="#414141"/>
</g>
<defs>
<clipPath id="clip0">
<rect width="64" height="26" fill="white"/>
</clipPath>
</defs>
</svg>
