<svg width="51" height="29" viewBox="0 0 51 29" fill="none" xmlns="http://www.w3.org/2000/svg">
<path d="M35.1121 28.7393L35.8869 28.7197L36.6509 28.6665L37.4005 28.5746L38.1446 28.4486L38.8684 28.2886L39.5822 28.0947L40.2809 27.8668L40.9643 27.61L41.6325 27.3192L42.2806 27.0042L42.9083 26.655L43.5208 26.2817L44.108 25.8796L44.6749 25.4529L45.2216 25.002L45.7431 24.5224L46.2444 24.023L46.7152 23.4995L47.1607 22.9565L47.5807 22.3943L47.9704 21.8079L48.3351 21.2065L48.6641 20.5862L48.9679 19.9463L49.236 19.2921L49.474 18.6229L49.6768 17.9397L49.8437 17.2464L49.9753 16.5338L50.0714 15.8165L50.1272 15.0847L50.1472 14.343L50.1272 13.6062L50.0714 12.8792L49.9753 12.1618L49.8437 11.4588L49.6768 10.7658L49.474 10.0871L49.236 9.41811L48.9679 8.76856L48.6641 8.13369L48.3351 7.5132L47.9704 6.91702L47.5807 6.33049L47.1607 5.76811L46.7152 5.23006L46.2444 4.70653L45.7431 4.20732L45.2216 3.73228L44.6749 3.28156L44.108 2.85515L43.5208 2.4526L42.9083 2.07942L42.2806 1.7353L41.6325 1.42024L40.9643 1.12934L40.2809 0.872543L39.5822 0.644659L38.8684 0.450725L38.1446 0.290746L37.4005 0.164722L36.6509 0.0726491L35.8869 0.0194237L35.1121 0L34.3426 0.0194237L33.5782 0.0726491L32.829 0.164722L32.0898 0.290746L31.3661 0.450725L30.6522 0.644659L29.9587 0.872543L29.2754 1.12934L28.612 1.42024L27.9692 1.7353L27.3415 2.07942L26.734 2.4526L26.1468 2.85515L25.5798 3.28156L25.0382 3.73228L24.5169 4.20732L24.0206 4.70653L23.5499 5.23006L23.1044 5.76811L22.6892 6.33049L22.2992 6.91702L21.94 7.5132L21.606 8.13369L21.307 8.76856L21.0388 9.41811L20.806 10.0871L20.6034 10.7658L20.4364 11.4588L20.3047 12.1618L20.2087 12.8792L20.153 13.6062L20.1328 14.343L20.153 15.0847L20.2087 15.8165L20.3047 16.5338L20.4364 17.2464L20.6034 17.9397L20.806 18.6229L21.0388 19.2921L21.307 19.9463L21.606 20.5862L21.94 21.2065L22.2992 21.8079L22.6892 22.3943L23.1044 22.9565L23.5499 23.4995L24.0206 24.023L24.5169 24.5224L25.0382 25.002L25.5798 25.4529L26.1468 25.8796L26.734 26.2817L27.3415 26.655L27.9692 27.0042L28.612 27.3192L29.2754 27.61L29.9587 27.8668L30.6522 28.0947L31.3661 28.2886L32.0898 28.4486L32.829 28.5746L33.5782 28.6665L34.3426 28.7197L35.1121 28.7393Z" fill="#424242"/>
<path d="M15.0352 28.74L15.8048 28.7205L16.5692 28.6672L17.3185 28.5753L18.0576 28.4493L18.7816 28.2893L19.4951 28.0954L20.1888 27.8675L20.8723 27.6107L21.5352 27.32L22.1782 27.0049L22.8061 26.6557L23.4137 26.2824L24.0009 25.8803L24.5678 25.4536L25.1094 25.0027L25.631 24.5231L26.1272 24.0237L26.5978 23.5002L27.0433 22.9572L27.4585 22.395L27.8483 21.8086L28.2077 21.2073L28.5417 20.5869L28.8404 19.947L29.1089 19.2929L29.3415 18.6236L29.544 17.9404L29.7113 17.2471L29.8429 16.5345L29.9389 15.8172L29.9948 15.0854L30.0149 14.3438L29.9948 13.6069L29.9389 12.88L29.8429 12.1625L29.7113 11.4596L29.544 10.7666L29.3415 10.0878L29.1089 9.41884L28.8404 8.76929L28.5417 8.13442L28.2077 7.51393L27.8483 6.91776L27.4585 6.33122L27.0433 5.76884L26.5978 5.23079L26.1272 4.70726L25.631 4.20806L25.1094 3.73301L24.5678 3.28229L24.0009 2.85588L23.4137 2.45334L22.8061 2.08015L22.1782 1.73603L21.5352 1.42097L20.8723 1.13007L20.1888 0.873275L19.4951 0.645391L18.7816 0.451458L18.0576 0.291478L17.3185 0.165454L16.5692 0.0733815L15.8048 0.0201561L15.0352 0.000732422L14.261 0.0201561L13.4966 0.0733815L12.7472 0.165454L12.0029 0.291478L11.2791 0.451458L10.5653 0.645391L9.86669 0.873275L9.18321 1.13007L8.51522 1.42097L7.86715 1.73603L7.2393 2.08015L6.62694 2.45334L6.03939 2.85588L5.47254 3.28229L4.92591 3.73301L4.40458 4.20806L3.90315 4.70726L3.43223 5.23079L2.98706 5.76884L2.56702 6.33122L2.177 6.91776L1.81243 7.51393L1.4831 8.13442L1.17968 8.76929L0.91151 9.41884L0.673361 10.0878L0.470926 10.7666L0.303889 11.4596L0.17241 12.1625L0.0760123 12.88L0.0205433 13.6069L0 14.3438L0.0205433 15.0854L0.0760123 15.8172L0.17241 16.5345L0.303889 17.2471L0.470926 17.9404L0.673361 18.6236L0.91151 19.2929L1.17968 19.947L1.4831 20.5869L1.81243 21.2073L2.177 21.8086L2.56702 22.395L2.98706 22.9572L3.43223 23.5002L3.90315 24.0237L4.40458 24.5231L4.92591 25.0027L5.47254 25.4536L6.03939 25.8803L6.62694 26.2824L7.2393 26.6557L7.86715 27.0049L8.51522 27.32L9.18321 27.6107L9.86669 27.8675L10.5653 28.0954L11.2791 28.2893L12.0029 28.4493L12.7472 28.5753L13.4966 28.6672L14.261 28.7205L15.0352 28.74Z" fill="#424242"/>
<path d="M17.9412 13.9034L17.8699 13.8987L17.7993 13.8889L17.7334 13.8791L17.6677 13.8696L17.6068 13.86L17.5412 13.8503L17.4752 13.8405L17.4046 13.8309L17.3336 13.8211L17.2527 13.8162L17.1617 13.8116L17.0654 13.8066H16.9591L16.8426 13.8116L16.711 13.8211L16.5643 13.8309L16.4627 13.8454L16.3668 13.86L16.2806 13.8889L16.2046 13.9181L16.1338 13.9518L16.0681 13.9906L16.0172 14.039L15.9715 14.0825L15.9414 14.1357L15.9162 14.189L15.906 14.2472V14.3054L15.9211 14.3681L15.9414 14.4309L15.9823 14.494L16.0324 14.5569L16.1338 14.6487L16.2554 14.7215L16.397 14.7843L16.5488 14.8376L16.711 14.8859L16.8778 14.9393L17.0449 14.9974L17.2072 15.0604L17.359 15.1424L17.5006 15.2442L17.6271 15.3653L17.7334 15.5152L17.8146 15.6991L17.8652 15.9172L17.8854 16.1784L17.8652 16.4832L17.8297 16.7108L17.769 16.9092L17.6877 17.0932L17.5868 17.2528L17.4703 17.3933L17.3387 17.5141L17.1967 17.6208L17.04 17.7128L16.8778 17.7852L16.711 17.8483L16.5387 17.8965L16.3617 17.9353L16.1895 17.9643L16.0224 17.979L15.8554 17.9886L15.6983 17.9935H15.4805L15.2783 17.9886H15.1011L14.9341 17.9837L14.7822 17.979L14.6457 17.9692L14.5241 17.9596L14.4074 17.9451L14.3012 17.9353L14.2049 17.9161L14.109 17.9016L14.0226 17.8773L13.9367 17.858L13.8555 17.829L13.7748 17.8L13.6885 17.7707L13.9164 16.7013L13.9622 16.7108L14.0178 16.7253L14.0884 16.7448L14.1746 16.7641L14.2658 16.7833L14.3671 16.8029L14.4786 16.8268L14.6 16.8464L14.7266 16.8656L14.8582 16.8849L14.9949 16.8997L15.1367 16.9142L15.2833 16.9191L15.4301 16.9238H15.5769L15.7237 16.9191L15.8707 16.8899L15.9869 16.8511L16.078 16.7978L16.1488 16.7302L16.1994 16.6625L16.2402 16.5848L16.2655 16.5075L16.2859 16.4349L16.2957 16.2946L16.2501 16.1736L16.1643 16.0768L16.0378 15.9945L15.8859 15.9218L15.7086 15.8492L15.511 15.7814L15.3135 15.7042L15.1112 15.617L14.9189 15.5152L14.7416 15.3892L14.5796 15.2393L14.4529 15.0554L14.3618 14.8376L14.3163 14.5761L14.3215 14.2664L14.3467 14.0777L14.3824 13.8987L14.4331 13.734L14.4935 13.5792L14.5744 13.4339L14.6657 13.3081L14.7721 13.1871L14.8985 13.0807L15.0456 12.9887L15.2075 12.9113L15.3895 12.8385L15.5921 12.7853L15.82 12.7418L16.0681 12.7079L16.3413 12.6885L16.6403 12.6836H16.8273L16.9994 12.6885L17.1564 12.6934L17.2984 12.6983L17.4248 12.7079L17.5412 12.7177L17.6422 12.7273L17.7334 12.7369L17.8197 12.7467L17.8905 12.761L17.9564 12.7708L18.0171 12.7804L18.0676 12.7902L18.1135 12.7949L18.1587 12.8047L18.1993 12.8096L17.9412 13.9034Z" fill="white"/>
<path d="M17.9412 13.9034L17.8699 13.8987L17.7993 13.8889L17.7334 13.8791L17.6677 13.8696L17.6068 13.86L17.5412 13.8503L17.4752 13.8405L17.4046 13.8309L17.3336 13.8211L17.2527 13.8162L17.1617 13.8116L17.0654 13.8066H16.9591L16.8426 13.8116L16.711 13.8211L16.5643 13.8309L16.4627 13.8454L16.3668 13.86L16.2806 13.8889L16.2046 13.9181L16.1338 13.9518L16.0681 13.9906L16.0172 14.039L15.9715 14.0825L15.9414 14.1357L15.9162 14.189L15.906 14.2472V14.3054L15.9211 14.3681L15.9414 14.4309L15.9823 14.494L16.0324 14.5569L16.1338 14.6487L16.2554 14.7215L16.397 14.7843L16.5488 14.8376L16.711 14.8859L16.8778 14.9393L17.0449 14.9974L17.2072 15.0604L17.359 15.1424L17.5006 15.2442L17.6271 15.3653L17.7334 15.5152L17.8146 15.6991L17.8652 15.9172L17.8854 16.1784L17.8652 16.4832L17.8297 16.7108L17.769 16.9092L17.6877 17.0932L17.5868 17.2528L17.4703 17.3933L17.3387 17.5141L17.1967 17.6208L17.04 17.7128L16.8778 17.7852L16.711 17.8483L16.5387 17.8965L16.3617 17.9353L16.1895 17.9643L16.0224 17.979L15.8554 17.9886L15.6983 17.9935H15.4805L15.2783 17.9886H15.1011L14.9341 17.9837L14.7822 17.979L14.6457 17.9692L14.5241 17.9596L14.4074 17.9451L14.3012 17.9353L14.2049 17.9161L14.109 17.9016L14.0226 17.8773L13.9367 17.858L13.8555 17.829L13.7748 17.8L13.6885 17.7707L13.9164 16.7013L13.9622 16.7108L14.0178 16.7253L14.0884 16.7448L14.1746 16.7641L14.2658 16.7833L14.3671 16.8029L14.4786 16.8268L14.6 16.8464L14.7266 16.8656L14.8582 16.8849L14.9949 16.8997L15.1367 16.9142L15.2833 16.9191L15.4301 16.9238H15.5769L15.7237 16.9191L15.8707 16.8899L15.9869 16.8511L16.078 16.7978L16.1488 16.7302L16.1994 16.6625L16.2402 16.5848L16.2655 16.5075L16.2859 16.4349L16.2957 16.2946L16.2501 16.1736L16.1643 16.0768L16.0378 15.9945L15.8859 15.9218L15.7086 15.8492L15.511 15.7814L15.3135 15.7042L15.1112 15.617L14.9189 15.5152L14.7416 15.3892L14.5796 15.2393L14.4529 15.0554L14.3618 14.8376L14.3163 14.5761L14.3215 14.2664L14.3467 14.0777L14.3824 13.8987L14.4331 13.734L14.4935 13.5792L14.5744 13.4339L14.6657 13.3081L14.7721 13.1871L14.8985 13.0807L15.0456 12.9887L15.2075 12.9113L15.3895 12.8385L15.5921 12.7853L15.82 12.7418L16.0681 12.7079L16.3413 12.6885L16.6403 12.6836H16.8273L16.9994 12.6885L17.1564 12.6934L17.2984 12.6983L17.4248 12.7079L17.5412 12.7177L17.6422 12.7273L17.7334 12.7369L17.8197 12.7467L17.8905 12.761L17.9564 12.7708L18.0171 12.7804L18.0676 12.7902L18.1135 12.7949L18.1587 12.8047L18.1993 12.8096L17.9412 13.9034Z" stroke="white" stroke-width="0.216" stroke-miterlimit="2.6131"/>
<path d="M19.141 11.6128H20.5432L20.3356 12.785H21.1812L20.9987 13.8797L20.1079 13.8557L19.6219 16.5586L19.6169 16.6554L19.6421 16.7377L19.6929 16.8007L19.7585 16.8541L19.8495 16.8878L19.9512 16.9172L20.062 16.9364L20.1837 16.9459L20.2951 16.9412L20.3963 16.9316L20.4878 16.9172L20.5683 16.8978L20.6342 16.8784L20.6799 16.8638L20.7103 16.8541L20.7204 16.8493L20.5432 17.7504L20.5078 17.7744L20.4723 17.7939L20.4369 17.8132L20.4013 17.8327L20.3661 17.8473L20.3255 17.8618L20.2799 17.8763L20.2343 17.8908L20.1837 17.9053L20.1333 17.9148L20.0726 17.9246L20.0118 17.9344L19.9459 17.944L19.8699 17.9536L19.7888 17.9634L19.7028 17.9731H19.318L19.1154 17.9585L18.9386 17.9391L18.7763 17.9101L18.6396 17.8763L18.5233 17.8327L18.4271 17.7841L18.3409 17.7261L18.2752 17.6631L18.2248 17.5954L18.1891 17.5128L18.1638 17.4304L18.1486 17.3386L18.1436 17.2369V17.1301L18.1587 17.019L18.1739 16.8978L19.141 11.6128Z" fill="white"/>
<path d="M19.141 11.6128H20.5432L20.3356 12.785H21.1812L20.9987 13.8797L20.1079 13.8557L19.6219 16.5586L19.6169 16.6554L19.6421 16.7377L19.6929 16.8007L19.7585 16.8541L19.8495 16.8878L19.9512 16.9172L20.062 16.9364L20.1837 16.9459L20.2951 16.9412L20.3963 16.9316L20.4878 16.9172L20.5683 16.8978L20.6342 16.8784L20.6799 16.8638L20.7103 16.8541L20.7204 16.8493L20.5432 17.7504L20.5078 17.7744L20.4723 17.7939L20.4369 17.8132L20.4013 17.8327L20.3661 17.8473L20.3255 17.8618L20.2799 17.8763L20.2343 17.8908L20.1837 17.9053L20.1333 17.9148L20.0726 17.9246L20.0118 17.9344L19.9459 17.944L19.8699 17.9536L19.7888 17.9634L19.7028 17.9731H19.318L19.1154 17.9585L18.9386 17.9391L18.7763 17.9101L18.6396 17.8763L18.5233 17.8327L18.4271 17.7841L18.3409 17.7261L18.2752 17.6631L18.2248 17.5954L18.1891 17.5128L18.1638 17.4304L18.1486 17.3386L18.1436 17.2369V17.1301L18.1587 17.019L18.1739 16.8978L19.141 11.6128Z" stroke="white" stroke-width="0.216" stroke-miterlimit="2.6131"/>
<path d="M22.3003 15.7059L22.285 15.7879L22.2804 15.8752L22.2903 15.9673L22.3106 16.0592L22.346 16.1513L22.3866 16.2386L22.4421 16.3304L22.5027 16.4128L22.5737 16.4951L22.6499 16.5677L22.7308 16.6405L22.822 16.6985L22.913 16.7519L23.0143 16.7954L23.1154 16.8292L23.2169 16.8488L23.3483 16.868L23.4749 16.8825L23.6064 16.8972L23.738 16.9068L23.8697 16.9116H24.0064L24.138 16.9068L24.2749 16.8972L24.4117 16.8778L24.5483 16.8535L24.6899 16.8245L24.8267 16.7809L24.9681 16.7276L25.1149 16.6695L25.2567 16.592L25.4037 16.5097L25.2011 17.701L25.1202 17.7398L25.0393 17.7785L24.9582 17.8076L24.8822 17.8367L24.8063 17.861L24.7252 17.885L24.6442 17.9045L24.5581 17.919L24.4672 17.9336L24.3661 17.9432L24.2597 17.9528L24.1431 17.9626L24.0118 17.9673H23.8749L23.7178 17.9722H23.5509L23.3028 17.9673L23.0497 17.9432L22.7965 17.9093L22.5435 17.8512L22.2956 17.7785L22.0573 17.6865L21.8297 17.5656L21.6171 17.425L21.4196 17.2604L21.2474 17.0619L21.1009 16.839L20.9792 16.5824L20.8929 16.2967L20.8374 15.9721L20.8223 15.6136L20.8477 15.2164L20.8678 15.0618L20.8983 14.8824L20.9384 14.6935L20.9945 14.49L21.0705 14.282L21.1616 14.0736L21.2777 13.8607L21.4196 13.6572L21.5814 13.4634L21.779 13.2794L22.0018 13.1147L22.2549 12.9695L22.5483 12.8485L22.8776 12.7611L23.242 12.703L23.6519 12.6836L23.8493 12.6885L24.0573 12.7079L24.2644 12.7418L24.4724 12.7903L24.6747 12.8628L24.8722 12.9501L25.0544 13.0662L25.2215 13.2019L25.3733 13.3667L25.4997 13.5603L25.601 13.7831L25.672 14.0398L25.7125 14.3303L25.7175 14.6596L25.6821 15.0277L25.6061 15.4346L25.5808 15.7299H21.8902L22.1233 14.7757H24.3405L24.3509 14.6549L24.3457 14.5386L24.3356 14.4319L24.3153 14.3353L24.2796 14.2432L24.2444 14.1608L24.1938 14.0881L24.1431 14.0204L24.0824 13.9623L24.0165 13.9137L23.9406 13.8703L23.8648 13.8315L23.7839 13.8023L23.7026 13.7831L23.6167 13.7686L23.5255 13.7588L23.4294 13.7637L23.3384 13.7782L23.252 13.7976L23.1661 13.8266L23.08 13.8653L23.004 13.909L22.9282 13.9623L22.8624 14.0204L22.7965 14.0881L22.7358 14.1608L22.68 14.2381L22.6347 14.3208L22.589 14.4079L22.5536 14.5048L22.5233 14.6015L22.5027 14.7031L22.3003 15.7059Z" fill="white"/>
<path d="M22.3003 15.7059L22.285 15.7879L22.2804 15.8752L22.2903 15.9673L22.3106 16.0592L22.346 16.1513L22.3866 16.2386L22.4421 16.3304L22.5027 16.4128L22.5737 16.4951L22.6499 16.5677L22.7308 16.6405L22.822 16.6985L22.913 16.7519L23.0143 16.7954L23.1154 16.8292L23.2169 16.8488L23.3483 16.868L23.4749 16.8825L23.6064 16.8972L23.738 16.9068L23.8697 16.9116H24.0064L24.138 16.9068L24.2749 16.8972L24.4117 16.8778L24.5483 16.8535L24.6899 16.8245L24.8267 16.7809L24.9681 16.7276L25.1149 16.6695L25.2567 16.592L25.4037 16.5097L25.2011 17.701L25.1202 17.7398L25.0393 17.7785L24.9582 17.8076L24.8822 17.8367L24.8063 17.861L24.7252 17.885L24.6442 17.9045L24.5581 17.919L24.4672 17.9336L24.3661 17.9432L24.2597 17.9528L24.1431 17.9626L24.0118 17.9673H23.8749L23.7178 17.9722H23.5509L23.3028 17.9673L23.0497 17.9432L22.7965 17.9093L22.5435 17.8512L22.2956 17.7785L22.0573 17.6865L21.8297 17.5656L21.6171 17.425L21.4196 17.2604L21.2474 17.0619L21.1009 16.839L20.9792 16.5824L20.8929 16.2967L20.8374 15.9721L20.8223 15.6136L20.8477 15.2164L20.8678 15.0618L20.8983 14.8824L20.9384 14.6935L20.9945 14.49L21.0705 14.282L21.1616 14.0736L21.2777 13.8607L21.4196 13.6572L21.5814 13.4634L21.779 13.2794L22.0018 13.1147L22.2549 12.9695L22.5483 12.8485L22.8776 12.7611L23.242 12.703L23.6519 12.6836L23.8493 12.6885L24.0573 12.7079L24.2644 12.7418L24.4724 12.7903L24.6747 12.8628L24.8722 12.9501L25.0544 13.0662L25.2215 13.2019L25.3733 13.3667L25.4997 13.5603L25.601 13.7831L25.672 14.0398L25.7125 14.3303L25.7175 14.6596L25.6821 15.0277L25.6061 15.4346L25.5808 15.7299H21.8902L22.1233 14.7757H24.3405L24.3509 14.6549L24.3457 14.5386L24.3356 14.4319L24.3153 14.3353L24.2796 14.2432L24.2444 14.1608L24.1938 14.0881L24.1431 14.0204L24.0824 13.9623L24.0165 13.9137L23.9406 13.8703L23.8648 13.8315L23.7839 13.8023L23.7026 13.7831L23.6167 13.7686L23.5255 13.7588L23.4294 13.7637L23.3384 13.7782L23.252 13.7976L23.1661 13.8266L23.08 13.8653L23.004 13.909L22.9282 13.9623L22.8624 14.0204L22.7965 14.0881L22.7358 14.1608L22.68 14.2381L22.6347 14.3208L22.589 14.4079L22.5536 14.5048L22.5233 14.6015L22.5027 14.7031L22.3003 15.7059Z" stroke="white" stroke-width="0.216" stroke-miterlimit="2.6131"/>
<path d="M34.3734 13.0758L34.3076 13.0419L34.2419 13.0128L34.1711 12.9789L34.0951 12.945L34.0192 12.9159L33.9329 12.8869L33.847 12.8579L33.7558 12.8287L33.6597 12.8045L33.5635 12.7851L33.4573 12.7657L33.3509 12.7513L33.2345 12.7416L33.1178 12.7319H32.9965H32.8701H32.7435L32.6117 12.7416L32.475 12.7561L32.3335 12.7802L32.1915 12.819L32.05 12.8724L31.9081 12.9402L31.7662 13.0273L31.6298 13.1339L31.4981 13.2598L31.3715 13.4148L31.2499 13.594L31.1387 13.8071L31.0322 14.0493L30.9363 14.3207L30.8554 14.6305L30.8249 14.8047L30.8045 14.9743L30.7944 15.1438L30.7996 15.3087L30.8147 15.4732L30.8501 15.6283L30.8956 15.7735L30.9513 15.9191L31.0273 16.0498L31.1183 16.1757L31.2247 16.287L31.346 16.3886L31.483 16.4757L31.6398 16.5486L31.8121 16.6116L32.0045 16.655L32.0701 16.6696L32.146 16.6842L32.237 16.6939L32.3384 16.7037L32.4497 16.7132H32.5662H32.6929L32.8193 16.7037L32.951 16.6889L33.0826 16.6649L33.209 16.631L33.3358 16.5921L33.4622 16.5388L33.5786 16.4757L33.685 16.3984L33.7861 16.3113L33.5586 17.6045L33.5281 17.6286L33.4977 17.6575L33.4573 17.6916L33.4118 17.7206L33.3558 17.7594L33.2849 17.7934L33.2041 17.8271L33.1129 17.8562L32.9965 17.8902L32.8648 17.9142L32.7131 17.9338L32.5358 17.9531L32.3384 17.9628L32.1107 17.9676L31.8522 17.9628L31.5688 17.9483L31.3361 17.924L31.1031 17.8757L30.8704 17.8031L30.6374 17.7062L30.4148 17.5899L30.2022 17.4445L29.9996 17.2751L29.8124 17.0813L29.6453 16.8634L29.5036 16.6212L29.3821 16.3501L29.291 16.0545L29.2303 15.7299L29.21 15.3861L29.2201 15.0083L29.2759 14.6065L29.316 14.4078L29.3617 14.214L29.4124 14.0251L29.463 13.8459L29.5187 13.6764L29.5843 13.5068L29.6504 13.3471L29.721 13.1968L29.7974 13.0466L29.8732 12.9063L29.9592 12.7706L30.05 12.6447L30.1412 12.5236L30.2428 12.4073L30.3438 12.3008L30.45 12.1992L30.5665 12.1023L30.6831 12.0101L30.8045 11.9279L30.9312 11.8504L31.0679 11.7775L31.2044 11.7147L31.346 11.6567L31.493 11.6033L31.6501 11.5549L31.8068 11.5161L31.9688 11.4823L32.1411 11.4531L32.313 11.4289L32.4955 11.4095L32.6777 11.3999L32.8701 11.395L33.032 11.3999L33.189 11.4095L33.3407 11.4239L33.4927 11.4435L33.6344 11.4629L33.7711 11.4919L33.9028 11.5161L34.0241 11.5451L34.1406 11.5743L34.2419 11.6033L34.338 11.6324L34.4192 11.6614L34.4898 11.6857L34.5507 11.7049L34.5964 11.7244L34.6265 11.7341L34.3734 13.0758Z" fill="white"/>
<path d="M34.3734 13.0758L34.3076 13.0419L34.2419 13.0128L34.1711 12.9789L34.0951 12.945L34.0192 12.9159L33.9329 12.8869L33.847 12.8579L33.7558 12.8287L33.6597 12.8045L33.5635 12.7851L33.4573 12.7657L33.3509 12.7513L33.2345 12.7416L33.1178 12.7319H32.9965H32.8701H32.7435L32.6117 12.7416L32.475 12.7561L32.3335 12.7802L32.1915 12.819L32.05 12.8724L31.9081 12.9402L31.7662 13.0273L31.6298 13.1339L31.4981 13.2598L31.3715 13.4148L31.2499 13.594L31.1387 13.8071L31.0322 14.0493L30.9363 14.3207L30.8554 14.6305L30.8249 14.8047L30.8045 14.9743L30.7944 15.1438L30.7996 15.3087L30.8147 15.4732L30.8501 15.6283L30.8956 15.7735L30.9513 15.9191L31.0273 16.0498L31.1183 16.1757L31.2247 16.287L31.346 16.3886L31.483 16.4757L31.6398 16.5486L31.8121 16.6116L32.0045 16.655L32.0701 16.6696L32.146 16.6842L32.237 16.6939L32.3384 16.7037L32.4497 16.7132H32.5662H32.6929L32.8193 16.7037L32.951 16.6889L33.0826 16.6649L33.209 16.631L33.3358 16.5921L33.4622 16.5388L33.5786 16.4757L33.685 16.3984L33.7861 16.3113L33.5586 17.6045L33.5281 17.6286L33.4977 17.6575L33.4573 17.6916L33.4118 17.7206L33.3558 17.7594L33.2849 17.7934L33.2041 17.8271L33.1129 17.8562L32.9965 17.8902L32.8648 17.9142L32.7131 17.9338L32.5358 17.9531L32.3384 17.9628L32.1107 17.9676L31.8522 17.9628L31.5688 17.9483L31.3361 17.924L31.1031 17.8757L30.8704 17.8031L30.6374 17.7062L30.4148 17.5899L30.2022 17.4445L29.9996 17.2751L29.8124 17.0813L29.6453 16.8634L29.5036 16.6212L29.3821 16.3501L29.291 16.0545L29.2303 15.7299L29.21 15.3861L29.2201 15.0083L29.2759 14.6065L29.316 14.4078L29.3617 14.214L29.4124 14.0251L29.463 13.8459L29.5187 13.6764L29.5843 13.5068L29.6504 13.3471L29.721 13.1968L29.7974 13.0466L29.8732 12.9063L29.9592 12.7706L30.05 12.6447L30.1412 12.5236L30.2428 12.4073L30.3438 12.3008L30.45 12.1992L30.5665 12.1023L30.6831 12.0101L30.8045 11.9279L30.9312 11.8504L31.0679 11.7775L31.2044 11.7147L31.346 11.6567L31.493 11.6033L31.6501 11.5549L31.8068 11.5161L31.9688 11.4823L32.1411 11.4531L32.313 11.4289L32.4955 11.4095L32.6777 11.3999L32.8701 11.395L33.032 11.3999L33.189 11.4095L33.3407 11.4239L33.4927 11.4435L33.6344 11.4629L33.7711 11.4919L33.9028 11.5161L34.0241 11.5451L34.1406 11.5743L34.2419 11.6033L34.338 11.6324L34.4192 11.6614L34.4898 11.6857L34.5507 11.7049L34.5964 11.7244L34.6265 11.7341L34.3734 13.0758Z" stroke="white" stroke-width="0.216" stroke-miterlimit="2.6131"/>
<path d="M46.8374 17.9734H45.435L45.5363 17.4358V17.3872L45.4553 17.4841L45.3693 17.5713L45.2833 17.649L45.1923 17.7168L45.1011 17.7796L45.0099 17.8331L44.9189 17.8766L44.8225 17.9202L44.7266 17.954L44.6302 17.9783L44.5341 18.0026L44.4328 18.0171L44.3315 18.0316L44.2354 18.0412L44.1341 18.0463H44.0328L43.7697 18.0267L43.5267 17.9734L43.3039 17.8911L43.1016 17.7796L42.9191 17.6391L42.7569 17.4747L42.6153 17.2954L42.494 17.092L42.3927 16.8737L42.3118 16.6464L42.256 16.4089L42.2154 16.162L42.2002 15.9148L42.2054 15.6628L42.2307 15.4158L42.2765 15.1688L42.3522 14.883L42.4436 14.6117L42.5498 14.3649L42.6762 14.1323L42.8078 13.9142L42.9595 13.7205L43.1168 13.5463L43.2836 13.3863L43.4609 13.2458L43.648 13.1246L43.8407 13.0183L44.0328 12.9359L44.2354 12.868L44.4377 12.8246L44.6405 12.7953L44.848 12.7856L44.9948 12.7905L45.1364 12.8051L45.268 12.8292L45.3895 12.8631L45.5062 12.902L45.6073 12.9455L45.7087 12.9989L45.7998 13.052L45.8807 13.1101L45.9565 13.1731L46.0223 13.2361L46.0833 13.2992L46.1337 13.3621L46.1793 13.425L46.2198 13.4832L46.2501 13.5414L46.6046 11.6377H47.9815L46.8374 17.9734Z" fill="white"/>
<path d="M46.8374 17.9734H45.435L45.5363 17.4358V17.3872L45.4553 17.4841L45.3693 17.5713L45.2833 17.649L45.1923 17.7168L45.1011 17.7796L45.0099 17.8331L44.9189 17.8766L44.8225 17.9202L44.7266 17.954L44.6302 17.9783L44.5341 18.0026L44.4328 18.0171L44.3315 18.0316L44.2354 18.0412L44.1341 18.0463H44.0328L43.7697 18.0267L43.5267 17.9734L43.3039 17.8911L43.1016 17.7796L42.9191 17.6391L42.7569 17.4747L42.6153 17.2954L42.494 17.092L42.3927 16.8737L42.3118 16.6464L42.256 16.4089L42.2154 16.162L42.2002 15.9148L42.2054 15.6628L42.2307 15.4158L42.2765 15.1688L42.3522 14.883L42.4436 14.6117L42.5498 14.3649L42.6762 14.1323L42.8078 13.9142L42.9595 13.7205L43.1168 13.5463L43.2836 13.3863L43.4609 13.2458L43.648 13.1246L43.8407 13.0183L44.0328 12.9359L44.2354 12.868L44.4377 12.8246L44.6405 12.7953L44.848 12.7856L44.9948 12.7905L45.1364 12.8051L45.268 12.8292L45.3895 12.8631L45.5062 12.902L45.6073 12.9455L45.7087 12.9989L45.7998 13.052L45.8807 13.1101L45.9565 13.1731L46.0223 13.2361L46.0833 13.2992L46.1337 13.3621L46.1793 13.425L46.2198 13.4832L46.2501 13.5414L46.6046 11.6377H47.9815L46.8374 17.9734Z" stroke="white" stroke-width="0.216" stroke-miterlimit="2.6131"/>
<path d="M44.5439 16.7981L44.6855 16.7886L44.8171 16.7596L44.9387 16.7256L45.055 16.6723L45.1613 16.6143L45.2626 16.5418L45.3587 16.4597L45.4448 16.3724L45.5207 16.2758L45.5918 16.1693L45.6574 16.058L45.7132 15.9421L45.7638 15.8212L45.8042 15.6954L45.8396 15.5648L45.8651 15.4343L45.8903 15.2986L45.9055 15.1584V15.0279L45.9003 14.8925L45.8854 14.7668L45.8651 14.6458L45.8297 14.5298L45.789 14.4185L45.7385 14.3219L45.6778 14.2297L45.6119 14.1523L45.5359 14.0847L45.4499 14.0267L45.3587 13.988L45.2626 13.9639L45.1564 13.9541L45.0196 13.9639L44.8932 13.9833L44.7765 14.0219L44.6601 14.0702L44.5588 14.1331L44.4578 14.2106L44.3717 14.2928L44.2855 14.3846L44.2095 14.4908L44.1387 14.6023L44.073 14.7182L44.0172 14.844L43.9666 14.9746L43.9262 15.1051L43.8855 15.2455L43.8554 15.3858L43.8301 15.5987L43.8402 15.8308L43.8756 16.0678L43.9413 16.2952L44.0425 16.4935L44.1743 16.6529L44.3413 16.7596L44.5439 16.7981Z" fill="#424242"/>
<path d="M13.4553 16.8935L13.253 17.9678H11.9774L12.0128 17.7693L12.0383 17.5905L12.0583 17.455L12.0784 17.3822L12.0078 17.4597L11.9267 17.537L11.8306 17.6097L11.7244 17.6775L11.6027 17.7453L11.4762 17.8034L11.3445 17.8614L11.2078 17.9096L11.061 17.9533L10.9142 17.9872L10.7676 18.0164L10.6157 18.0356L10.4687 18.0453L10.3221 18.0501L10.1802 18.0356L10.0436 18.0164L9.86634 17.9727L9.70436 17.9245L9.56277 17.8614L9.43635 17.7888L9.32478 17.7114L9.22349 17.6242L9.14258 17.5323L9.07131 17.4355L9.01079 17.3339L8.96037 17.2271L8.91976 17.1209L8.88926 17.0146L8.86903 16.9031L8.85387 16.7917L8.84375 16.6851V16.5789L8.85876 16.3901L8.88926 16.2108L8.93999 16.0414L9.00573 15.877L9.08664 15.7221L9.17798 15.5818L9.28417 15.4463L9.40601 15.3252L9.53227 15.2137L9.67387 15.1122L9.82083 15.0204L9.97269 14.9428L10.1347 14.8753L10.3017 14.8218L10.474 14.7783L10.6509 14.7493H10.6612L10.6865 14.7443L10.7221 14.7395L10.7775 14.7348L10.8382 14.725L10.9092 14.7203L10.985 14.7105L11.0713 14.7007L11.1574 14.6911L11.2434 14.6815L11.3346 14.6767L11.4155 14.667L11.4964 14.6622L11.5721 14.6572L11.6432 14.6525H11.699H11.8154L11.9368 14.6572L12.0482 14.6622H12.1596L12.2508 14.667L12.3216 14.6717L12.3722 14.6767H12.3873L12.3976 14.6427L12.428 14.5556L12.4532 14.4539L12.4634 14.3621L12.4431 14.2554L12.3976 14.1587L12.3369 14.0715L12.256 13.999L12.1596 13.9361L12.0533 13.8925L11.9321 13.8634L11.8 13.8539L11.6587 13.849L11.5067 13.8441H11.3497L11.1874 13.849L11.0204 13.8588L10.8588 13.873L10.6966 13.8877L10.5395 13.907L10.3878 13.9264L10.241 13.9506L10.1095 13.9749L9.98802 13.999L9.87662 14.0282L9.78559 14.057L9.71464 14.0909L9.65885 14.1199L10.0185 12.9535L10.1295 12.9101L10.241 12.8713L10.3624 12.8373L10.4839 12.8131L10.6053 12.789L10.7372 12.7696L10.8687 12.7504L11.0052 12.7406L11.1473 12.731L11.2936 12.7261L11.4458 12.7212H11.6027H11.765H11.9321L12.1089 12.7261L12.2862 12.731L12.428 12.7406L12.5798 12.7647L12.7366 12.7986L12.8987 12.8421L13.0556 12.9003L13.2075 12.9681L13.3595 13.0503L13.5011 13.1422L13.6275 13.2488L13.7391 13.3651L13.8401 13.4956L13.9161 13.6409L13.9668 13.7957L13.9973 13.9603V14.1442L13.9668 14.3379L13.4553 16.8935Z" fill="white"/>
<path d="M13.4553 16.8935L13.253 17.9678H11.9774L12.0128 17.7693L12.0383 17.5905L12.0583 17.455L12.0784 17.3822L12.0078 17.4597L11.9267 17.537L11.8306 17.6097L11.7244 17.6775L11.6027 17.7453L11.4762 17.8034L11.3445 17.8614L11.2078 17.9096L11.061 17.9533L10.9142 17.9872L10.7676 18.0164L10.6157 18.0356L10.4687 18.0453L10.3221 18.0501L10.1802 18.0356L10.0436 18.0164L9.86634 17.9727L9.70436 17.9245L9.56277 17.8614L9.43635 17.7888L9.32478 17.7114L9.22349 17.6242L9.14258 17.5323L9.07131 17.4355L9.01079 17.3339L8.96037 17.2271L8.91976 17.1209L8.88926 17.0146L8.86903 16.9031L8.85387 16.7917L8.84375 16.6851V16.5789L8.85876 16.3901L8.88926 16.2108L8.93999 16.0414L9.00573 15.877L9.08664 15.7221L9.17798 15.5818L9.28417 15.4463L9.40601 15.3252L9.53227 15.2137L9.67387 15.1122L9.82083 15.0204L9.97269 14.9428L10.1347 14.8753L10.3017 14.8218L10.474 14.7783L10.6509 14.7493H10.6612L10.6865 14.7443L10.7221 14.7395L10.7775 14.7348L10.8382 14.725L10.9092 14.7203L10.985 14.7105L11.0713 14.7007L11.1574 14.6911L11.2434 14.6815L11.3346 14.6767L11.4155 14.667L11.4964 14.6622L11.5721 14.6572L11.6432 14.6525H11.699H11.8154L11.9368 14.6572L12.0482 14.6622H12.1596L12.2508 14.667L12.3216 14.6717L12.3722 14.6767H12.3873L12.3976 14.6427L12.428 14.5556L12.4532 14.4539L12.4634 14.3621L12.4431 14.2554L12.3976 14.1587L12.3369 14.0715L12.256 13.999L12.1596 13.9361L12.0533 13.8925L11.9321 13.8634L11.8 13.8539L11.6587 13.849L11.5067 13.8441H11.3497L11.1874 13.849L11.0204 13.8588L10.8588 13.873L10.6966 13.8877L10.5395 13.907L10.3878 13.9264L10.241 13.9506L10.1095 13.9749L9.98802 13.999L9.87662 14.0282L9.78559 14.057L9.71464 14.0909L9.65885 14.1199L10.0185 12.9535L10.1295 12.9101L10.241 12.8713L10.3624 12.8373L10.4839 12.8131L10.6053 12.789L10.7372 12.7696L10.8687 12.7504L11.0052 12.7406L11.1473 12.731L11.2936 12.7261L11.4458 12.7212H11.6027H11.765H11.9321L12.1089 12.7261L12.2862 12.731L12.428 12.7406L12.5798 12.7647L12.7366 12.7986L12.8987 12.8421L13.0556 12.9003L13.2075 12.9681L13.3595 13.0503L13.5011 13.1422L13.6275 13.2488L13.7391 13.3651L13.8401 13.4956L13.9161 13.6409L13.9668 13.7957L13.9973 13.9603V14.1442L13.9668 14.3379L13.4553 16.8935Z" stroke="white" stroke-width="0.216" stroke-miterlimit="2.6131"/>
<path d="M12.2358 15.6366L12.2306 15.6125L12.2105 15.5882L12.1802 15.5736L12.1296 15.564L12.074 15.5544L12.0081 15.5493H11.9324H11.8564L11.7751 15.5544L11.689 15.564L11.6081 15.5736L11.527 15.5833L11.451 15.593L11.3804 15.6078L11.3197 15.6221L11.2639 15.6366L11.2284 15.6462L11.1877 15.6607L11.1323 15.6801L11.0768 15.7042L11.0107 15.7332L10.9449 15.7672L10.8742 15.8009L10.8082 15.8397L10.7375 15.8879L10.6715 15.9363L10.6108 15.9944L10.5552 16.0526L10.5044 16.1154L10.469 16.183L10.4385 16.2604L10.4234 16.3378L10.4185 16.5021L10.4439 16.6329L10.4946 16.7295L10.5601 16.8019L10.6359 16.8505L10.7223 16.8795L10.8033 16.894L10.8842 16.8988L11.036 16.894L11.1726 16.8795L11.3045 16.8599L11.4207 16.8309L11.5221 16.7972L11.618 16.7537L11.7042 16.7102L11.7803 16.6568L11.8461 16.6088L11.9069 16.5506L11.9572 16.4974L11.9979 16.4394L12.0332 16.3814L12.0637 16.3233L12.089 16.27L12.1041 16.2168L12.1448 16.0767L12.1802 15.9171L12.2105 15.7622L12.2358 15.6366Z" fill="#424242"/>
<path d="M2.80465 17.9731H1.42773L2.57693 11.6128H4.97156L5.19913 15.3863L6.85466 11.6128H9.35548L8.181 17.9731H6.80393L7.67467 13.221H7.61889L5.55865 17.9731H4.00442L3.9943 17.7744L3.95891 17.2464L3.91355 16.4956L3.86267 15.6334L3.81225 14.7663L3.76658 14.0058L3.73134 13.4535L3.72107 13.221H3.70558H3.6754H3.64522L2.80465 17.9731Z" fill="white"/>
<path d="M2.80465 17.9731H1.42773L2.57693 11.6128H4.97156L5.19913 15.3863L6.85466 11.6128H9.35548L8.181 17.9731H6.80393L7.67467 13.221H7.61889L5.55865 17.9731H4.00442L3.9943 17.7744L3.95891 17.2464L3.91355 16.4956L3.86267 15.6334L3.81225 14.7663L3.76658 14.0058L3.73134 13.4535L3.72107 13.221H3.70558H3.6754H3.64522L2.80465 17.9731Z" stroke="white" stroke-width="0.216" stroke-miterlimit="2.6131"/>
<path d="M38.5803 16.8935L38.3729 17.9678H37.1021L37.1121 17.7693L37.1175 17.595V17.4645L37.1273 17.4064L37.0615 17.479L36.9857 17.5515L36.8946 17.6195L36.7932 17.6871L36.687 17.7499L36.5653 17.8081L36.4389 17.8661L36.3124 17.9147L36.1756 17.9533L36.034 17.9921L35.8919 18.0164L35.7503 18.0356L35.6035 18.0453L35.4618 18.0501L35.3249 18.0356L35.1884 18.0164L35.0062 17.9727L34.8442 17.9245L34.7026 17.8614L34.5708 17.7888L34.4594 17.7114L34.3633 17.6242L34.2821 17.5323L34.2114 17.4355L34.1507 17.3339L34.1051 17.2271L34.0646 17.1209L34.0392 17.0146L34.0191 16.9031L34.0039 16.7917L33.9937 16.6851V16.5789L34.0039 16.3901L34.0343 16.2108L34.0798 16.0414L34.1455 15.877L34.2214 15.7221L34.3178 15.5818L34.424 15.4463L34.5404 15.3252L34.6722 15.2137L34.8088 15.1122L34.9554 15.0204L35.1124 14.9428L35.2694 14.8753L35.4365 14.8218L35.6035 14.7783L35.7758 14.7493H35.7857L35.8112 14.7443L35.8464 14.7395L35.8973 14.7348L35.9629 14.725L36.034 14.7203L36.1098 14.7105L36.1906 14.7007L36.2767 14.6911L36.3679 14.6815L36.454 14.6767L36.5402 14.667L36.6211 14.6622L36.692 14.6572L36.7628 14.6525H36.8186H36.9401L37.0615 14.6572L37.1777 14.6622H37.2892L37.3856 14.667L37.4665 14.6717L37.5121 14.6767H37.5324L37.5424 14.6427L37.5576 14.5556L37.5727 14.4539L37.583 14.3621L37.5626 14.2554L37.5223 14.1587L37.4563 14.0715L37.3804 13.999L37.2892 13.9361L37.183 13.8925L37.0716 13.8634L36.9501 13.8539L36.8083 13.849L36.6566 13.8441H36.4996L36.3374 13.849L36.1705 13.8588L36.0086 13.873L35.8464 13.8877L35.6896 13.907L35.5376 13.9264L35.391 13.9506L35.2593 13.9749L35.138 13.999L35.0264 14.0282L34.9354 14.057L34.8644 14.0909L34.8088 14.1199L35.1632 12.9535L35.2745 12.9101L35.391 12.8713L35.5073 12.8373L35.629 12.8131L35.7554 12.789L35.882 12.7696L36.0135 12.7504L36.1503 12.7406L36.2921 12.731L36.4389 12.7261L36.5857 12.7212H36.7425H36.8995H37.0615L37.2336 12.7261L37.4059 12.731L37.5475 12.7406L37.6995 12.7647L37.8564 12.7986L38.0184 12.8421L38.1753 12.9003L38.3321 12.9681L38.484 13.0503L38.6259 13.1422L38.7523 13.2488L38.8688 13.3651L38.9701 13.4956L39.0459 13.6409L39.1019 13.7957L39.1371 13.9603V14.1442L39.1117 14.3379L38.5803 16.8935Z" fill="white"/>
<path d="M38.3733 18.0113L38.4036 17.9822L38.6111 16.9077L38.5504 16.8979L38.3428 17.9725L38.3733 17.9434V18.0113L38.3984 18.0065L38.4036 17.9822L38.3733 18.0113Z" fill="white"/>
<path d="M37.0719 17.9766L37.1025 18.0104H38.3731V17.9429H37.1025L37.1325 17.9766H37.0719L37.0669 18.0104H37.1025L37.0719 17.9766Z" fill="white"/>
<path d="M37.1529 17.4364L37.1072 17.3979L37.0868 17.4752L37.0819 17.6058V17.78L37.0718 17.9785H37.1324L37.1426 17.78L37.1529 17.6058L37.1477 17.4752V17.4364L37.1023 17.3979L37.1529 17.4364Z" fill="white"/>
<path d="M35.1831 18.0559L35.3245 18.0751L35.4614 18.0898L35.6032 18.085L35.75 18.0751L35.8969 18.0559L36.0384 18.0318L36.1805 17.993L36.322 17.9543L36.4488 17.9058L36.5801 17.8478L36.7016 17.7897L36.808 17.7221L36.9144 17.6545L37.0055 17.5865L37.0863 17.509L37.1524 17.4364L37.1018 17.3979L37.0359 17.4705L36.9649 17.5383L36.8739 17.6058L36.7778 17.6737L36.6716 17.7317L36.5496 17.7897L36.4282 17.8478L36.3018 17.8963L36.1702 17.9351L36.0283 17.9736L35.8868 17.9979L35.75 18.0172L35.6032 18.027L35.4614 18.0318L35.3245 18.0172L35.1934 17.9979L35.1831 18.0559Z" fill="white"/>
<path d="M33.958 16.5854L33.9631 16.6917L33.9732 16.7982L33.9882 16.9142L34.0086 17.0257L34.034 17.1319L34.0743 17.2432L34.1201 17.3546L34.1857 17.4561L34.2567 17.5576L34.3376 17.6498L34.4389 17.7415L34.5555 17.8191L34.6871 17.8963L34.8336 17.9592L35.001 18.0076L35.1832 18.0511L35.1934 17.9931L35.0109 17.9496L34.854 17.901L34.7173 17.8383L34.5857 17.7705L34.4793 17.6932L34.3882 17.6109L34.3072 17.5188L34.2363 17.4271L34.1808 17.3254L34.1353 17.2239L34.0947 17.1224L34.0694 17.0159L34.0492 16.9048L34.034 16.7982L34.0237 16.6917L34.0288 16.5854H33.958Z" fill="white"/>
<path d="M35.7756 14.7271L35.5984 14.756L35.4261 14.7995L35.2591 14.8527L35.0971 14.9204L34.9399 14.998L34.7882 15.0944L34.6515 15.1964L34.5198 15.3124L34.3984 15.4331L34.2921 15.5686L34.1908 15.7136L34.1149 15.8733L34.0492 16.0379L34.0037 16.2119L33.9732 16.3958L33.958 16.5845H34.0288L34.034 16.3958L34.0644 16.2214L34.11 16.0572L34.1756 15.8928L34.2516 15.7428L34.3427 15.6075L34.4489 15.4719L34.5604 15.3511L34.6921 15.2444L34.8288 15.1429L34.9704 15.056L35.1275 14.9784L35.2792 14.9108L35.4462 14.8575L35.6084 14.814L35.7756 14.785V14.7271Z" fill="white"/>
<path d="M36.8182 14.6235H36.7624L36.6916 14.633L36.6206 14.6379L36.5397 14.6428L36.4536 14.6523L36.3675 14.6574L36.2763 14.6672L36.1902 14.6767L36.1094 14.6865L36.0336 14.6961L35.9625 14.701L35.8969 14.7108L35.846 14.7155L35.8054 14.7203L35.7853 14.7253H35.7754V14.7835H35.7853L35.8157 14.7785L35.846 14.7737L35.8969 14.769L35.9625 14.7592L36.0336 14.7544L36.1094 14.7446L36.1902 14.7348L36.2763 14.7253L36.3675 14.7155L36.4536 14.7108L36.5397 14.701L36.6206 14.6961L36.6916 14.6912H36.7624H36.8182V14.6235Z" fill="white"/>
<path d="M37.5025 14.6768L37.5332 14.6524H37.5128L37.4673 14.6476L37.3864 14.6429L37.29 14.633H37.1784H37.0622L36.9409 14.6235H36.8193V14.6913H36.9409H37.0622L37.1784 14.7011H37.29H37.3864L37.4673 14.7059L37.5128 14.711H37.5332L37.5634 14.6866L37.5332 14.711L37.5583 14.7157L37.5634 14.6866L37.5025 14.6768Z" fill="white"/>
<path d="M37.5527 14.3667H37.5476L37.5426 14.4588L37.5274 14.556L37.5122 14.6435L37.502 14.6773L37.5628 14.6871L37.5729 14.653L37.5881 14.5656L37.6033 14.4588L37.6186 14.3667H37.6135H37.5527Z" fill="white"/>
<path d="M36.9502 13.8868V13.8917L37.0667 13.8966L37.173 13.9258L37.2742 13.9692L37.3603 14.0275L37.4311 14.0953L37.4919 14.1778L37.5325 14.2652L37.5526 14.3671H37.6134L37.5931 14.2554L37.5526 14.1487L37.4818 14.0566L37.4009 13.979L37.3046 13.9111L37.1932 13.8673L37.0768 13.8383L36.9502 13.8237V13.8286V13.8868Z" fill="white"/>
<path d="M34.7783 14.1212L34.8289 14.1504L34.8793 14.126L34.9454 14.0918L35.0313 14.0626L35.1427 14.0336L35.2641 14.0092L35.3959 13.9849L35.5427 13.9604L35.6895 13.9409L35.8463 13.9216L36.0085 13.9068L36.1704 13.8922L36.3373 13.8824H36.4995H36.6566H36.8083L36.95 13.8873V13.8289L36.8083 13.824L36.6566 13.8145H36.4995L36.3373 13.824L36.1704 13.8338L36.0085 13.8484L35.8463 13.8632L35.6895 13.8824L35.5325 13.9021L35.3856 13.9265L35.2543 13.9508L35.1325 13.975L35.0212 14.0042L34.925 14.0336L34.849 14.0676L34.7883 14.1017L34.839 14.1309L34.7783 14.1212Z" fill="white"/>
<path d="M35.1529 12.9268L35.1325 12.951L34.7783 14.1164L34.839 14.126L35.1937 12.9606L35.1731 12.9847L35.1529 12.9268L35.1379 12.9316L35.1325 12.951L35.1529 12.9268Z" fill="white"/>
<path d="M37.4057 12.7025L37.2334 12.6929L37.0613 12.688H36.8994H36.7423H36.5855L36.4387 12.6978L36.2919 12.7025L36.1501 12.7123L36.0133 12.7219L35.8766 12.7414L35.7502 12.7606L35.6236 12.7849L35.5021 12.8093L35.3807 12.8431L35.2641 12.8819L35.1528 12.9255L35.1731 12.9836L35.2846 12.9402L35.4008 12.9013L35.5122 12.8674L35.6337 12.8431L35.7604 12.8189L35.887 12.7995L36.0133 12.7801L36.1501 12.7704L36.2919 12.7606L36.4387 12.7559H36.5855H36.7423H36.8994H37.0613L37.2334 12.7606H37.4057V12.7025Z" fill="white"/>
<path d="M39.1415 14.3425L39.1668 14.1444V13.9607L39.1316 13.7914L39.0758 13.632L38.9949 13.482L38.8933 13.3467L38.7719 13.2259L38.6453 13.1194L38.4985 13.0276L38.3468 12.9407L38.1847 12.8729L38.0279 12.8148L37.8609 12.7713L37.7039 12.7375L37.5469 12.7134L37.4053 12.7036V12.7616L37.5469 12.7713L37.6937 12.7954L37.8508 12.8293L38.0075 12.8729L38.1644 12.9309L38.3165 12.9986L38.4682 13.076L38.6049 13.1678L38.7315 13.2741L38.8429 13.3853L38.944 13.511L39.0151 13.6512L39.0706 13.801L39.1062 13.9607V14.1444L39.0807 14.3331L39.1415 14.3425Z" fill="white"/>
<path d="M38.6115 16.9003L39.1429 14.3464L39.0821 14.3369L38.5508 16.8906L38.6115 16.9003Z" fill="white"/>
<path d="M37.3551 15.6348L37.3453 15.606L37.3249 15.5816L37.2893 15.5671L37.2389 15.5526L37.1831 15.5475L37.1176 15.543H37.0412L36.9654 15.5475L36.8845 15.5573L36.8035 15.5671L36.7223 15.5767L36.6466 15.5865L36.5706 15.601L36.5045 15.6107L36.439 15.6252L36.3884 15.6348L36.3528 15.6397L36.3125 15.6541L36.2618 15.6687L36.2059 15.688L36.1403 15.717L36.0796 15.746L36.0086 15.78L35.9429 15.8235L35.8768 15.867L35.8113 15.9204L35.7555 15.9734L35.6997 16.0364L35.6543 16.1039L35.6189 16.1767L35.5884 16.2541L35.5733 16.3362L35.5684 16.5005L35.5933 16.6313L35.6339 16.728L35.6948 16.8004L35.7706 16.849L35.8568 16.878L35.9429 16.8925L36.0287 16.8974L36.1809 16.8925L36.3225 16.878L36.4541 16.8537L36.5706 16.82L36.6822 16.7812L36.7783 16.7376L36.8693 16.6892L36.9502 16.6313L37.021 16.5779L37.0818 16.515L37.1376 16.457L37.1831 16.3943L37.2185 16.3362L37.2438 16.2782L37.264 16.2199L37.2792 16.1669L37.2996 16.0314L37.3249 15.8913L37.3453 15.7557L37.3551 15.6348Z" fill="#424242"/>
<path d="M38.9604 17.9723H40.3881L40.8996 15.2166L40.9195 15.1102L40.9497 15.0036L40.9804 14.8971L41.0208 14.7907L41.0716 14.6841L41.1322 14.5824L41.198 14.4854L41.2792 14.3936L41.3702 14.3111L41.4712 14.2337L41.5877 14.161L41.7195 14.1029L41.8663 14.0545L42.0283 14.0158L42.2054 13.9867L42.4028 13.977H42.4737H42.514H42.5292L42.7569 12.7324L42.6153 12.742L42.4788 12.7566L42.3522 12.7807L42.2307 12.8146L42.1193 12.8534L42.0131 12.9019L41.9118 12.9551L41.8159 13.0133L41.7247 13.0811L41.6386 13.1488L41.5573 13.2264L41.4764 13.3039L41.4006 13.3861L41.3247 13.4783L41.2487 13.5652L41.1779 13.6622L41.3296 12.7856H39.9072L38.9604 17.9723Z" fill="white"/>
<path d="M38.9604 17.9723H40.3881L40.8996 15.2166L40.9195 15.1102L40.9497 15.0036L40.9804 14.8971L41.0208 14.7907L41.0716 14.6841L41.1322 14.5824L41.198 14.4854L41.2792 14.3936L41.3702 14.3111L41.4712 14.2337L41.5877 14.161L41.7195 14.1029L41.8663 14.0545L42.0283 14.0158L42.2054 13.9867L42.4028 13.977H42.4737H42.514H42.5292L42.7569 12.7324L42.6153 12.742L42.4788 12.7566L42.3522 12.7807L42.2307 12.8146L42.1193 12.8534L42.0131 12.9019L41.9118 12.9551L41.8159 13.0133L41.7247 13.0811L41.6386 13.1488L41.5573 13.2264L41.4764 13.3039L41.4006 13.3861L41.3247 13.4783L41.2487 13.5652L41.1779 13.6622L41.3296 12.7856H39.9072L38.9604 17.9723Z" stroke="white" stroke-width="0.216" stroke-miterlimit="2.6131"/>
<path d="M25.5547 17.9723H26.9823H27.0078L27.4935 15.2166L27.5136 15.1102L27.5391 15.0085L27.5645 14.9069L27.5999 14.81L27.6404 14.7131L27.6908 14.6213L27.7516 14.5339L27.8226 14.4516L27.9038 14.3788L27.9948 14.3065L28.1061 14.2483L28.2276 14.1949L28.3693 14.1512L28.5263 14.1126L28.6985 14.0883L28.8957 14.0738H28.9109L28.9315 14.0786L28.9564 14.0835H28.9819L29.0073 14.0883L29.0274 14.0932L29.0427 14.098H29.0476L29.0528 14.0786L29.068 14.0206L29.0882 13.9335L29.1135 13.8268L29.1489 13.7009L29.1845 13.5652L29.2301 13.4297L29.2756 13.2941L29.3158 13.2021L29.3667 13.11L29.4172 13.0182L29.4678 12.9358L29.5135 12.8631L29.5489 12.805L29.5743 12.7711L29.5841 12.7566H29.5792L29.5588 12.7518L29.5337 12.7469L29.4983 12.742H29.4628L29.4221 12.7372L29.3869 12.7324H29.3515L29.1944 12.742L29.0528 12.7566L28.9212 12.7807L28.7997 12.8099L28.6832 12.8487L28.577 12.897L28.4806 12.9454L28.3894 13.0035L28.3034 13.0665L28.2224 13.139L28.1467 13.2118L28.0708 13.2941L27.9948 13.3765L27.9239 13.4685L27.848 13.5652L27.772 13.6622L27.9542 12.7856H26.5014L25.5547 17.9723Z" fill="white"/>
<path d="M25.5547 17.9723H26.9823H27.0078L27.4935 15.2166L27.5136 15.1102L27.5391 15.0085L27.5645 14.9069L27.5999 14.81L27.6404 14.7131L27.6908 14.6213L27.7516 14.5339L27.8226 14.4516L27.9038 14.3788L27.9948 14.3065L28.1061 14.2483L28.2276 14.1949L28.3693 14.1512L28.5263 14.1126L28.6985 14.0883L28.8957 14.0738H28.9109L28.9315 14.0786L28.9564 14.0835H28.9819L29.0073 14.0883L29.0274 14.0932L29.0427 14.098H29.0476L29.0528 14.0786L29.068 14.0206L29.0882 13.9335L29.1135 13.8268L29.1489 13.7009L29.1845 13.5652L29.2301 13.4297L29.2756 13.2941L29.3158 13.2021L29.3667 13.11L29.4172 13.0182L29.4678 12.9358L29.5135 12.8631L29.5489 12.805L29.5743 12.7711L29.5841 12.7566H29.5792L29.5588 12.7518L29.5337 12.7469L29.4983 12.742H29.4628L29.4221 12.7372L29.3869 12.7324H29.3515L29.1944 12.742L29.0528 12.7566L28.9212 12.7807L28.7997 12.8099L28.6832 12.8487L28.577 12.897L28.4806 12.9454L28.3894 13.0035L28.3034 13.0665L28.2224 13.139L28.1467 13.2118L28.0708 13.2941L27.9948 13.3765L27.9239 13.4685L27.848 13.5652L27.772 13.6622L27.9542 12.7856H26.5014L25.5547 17.9723Z" stroke="white" stroke-width="0.216" stroke-miterlimit="2.6131"/>
</svg>
